<svg xmlns="http://www.w3.org/2000/svg" viewBox="129.58 124.08 763.84 763.84" role="img" aria-label="Proteo" xmlns:c2pa="http://c2pa.org/manifest"><metadata><c2pa:manifest>AAAWgmp1bWIAAAAeanVtZGMycGEAEQAQgAAAqgA4m3EDYzJwYQAAABZcanVtYgAAAEdqdW1kYzJtYQARABCAAACqADibcQN1cm46YzJwYTpjN2I1ZGRkZC0wYTJhLTQ2OGQtYjc4Ni1mNjc1Yjc2NmE4YmMAAAADl2p1bWIAAAApanVtZGMyYXMAEQAQgAAAqgA4m3EDYzJwYS5hc3NlcnRpb25zAAAAALxqdW1iAAAARGp1bWRjYm9yABEAEIAAAKoAOJtxE2MycGEuaW5ncmVkaWVudC52MwAAAAAYYzJzaLfIWkUG1BXRaI8iIOVmHJYAAABwY2JvcqNpZGM6Zm9ybWF0bWltYWdlL3N2Zyt4bWxqaW5zdGFuY2VJRHgseG1wOmlpZDo3ODFjOTBlZC03ZDU2LTRjZjgtYjFmZi0xODBkZDY1NTQ3MGNscmVsYXRpb25zaGlwaHBhcmVudE9mAAAB4mp1bWIAAABBanVtZGNib3IAEQAQgAAAqgA4m3ETYzJwYS5hY3Rpb25zLnYyAAAAABhjMnNoGnsAta0dnVqvaI/IrFzaVgAAAZljYm9yomdhY3Rpb25zgqJmYWN0aW9ua2MycGEub3BlbmVkanBhcmFtZXRlcnOha2luZ3JlZGllbnRzgaJjdXJseC1zZWxmI2p1bWJmPWMycGEuYXNzZXJ0aW9ucy9jMnBhLmluZ3JlZGllbnQudjNkaGFzaFggEBkcONM5YJ6YO9cGhEnhpxeeZx+FPDoWAYrUUfsZ+nCkZmFjdGlvbngdY29tLmFudGhyb3BpYy5jbGF1ZGUucHJvdmlkZWRqcGFyYW1ldGVyc6F4H2NvbS5hbnRocm9waWMub3JpZ2luLWNvbmZpZGVuY2VndW5rbm93bmtkZXNjcmlwdGlvbnhmQ2xhdWRlIHByb3ZpZGVkIHRoaXMgZmlsZSBhdCB0aGUgcmVxdWVzdCBvZiBhIHVzZXIgYW5kIG1heSBoYXZlIGNyZWF0ZWQgb3IgbW9kaWZpZWQgdGhlIGZpbGUgY29udGVudHMubXNvZnR3YXJlQWdlbnShZG5hbWVmQ2xhdWRlcmFsbEFjdGlvbnNJbmNsdWRlZPUAAADIanVtYgAAAEBqdW1kY2JvcgARABCAAACqADibcRNjMnBhLmhhc2guZGF0YQAAAAAYYzJzaL2oV1McNTGIkUbnJtuwk1MAAACAY2JvcqVjYWxnZnNoYTI1NmNwYWRNAAAAAAAAAAAAAAAAAGRoYXNoWCAdEttyam35C6u/blgNFQ6pkFbxy0af/H7YRHCniB9RMWRuYW1lbmp1bWJmIG1hbmlmZXN0amV4Y2x1c2lvbnOBomVzdGFydBisZmxlbmd0aBkeBAAAAj5qdW1iAAAAJ2p1bWRjMmNsABEAEIAAAKoAOJtxA2MycGEuY2xhaW0udjIAAAACD2Nib3KlY2FsZ2ZzaGEyNTZpc2lnbmF0dXJleE1zZWxmI2p1bWJmPS9jMnBhL3VybjpjMnBhOmM3YjVkZGRkLTBhMmEtNDY4ZC1iNzg2LWY2NzViNzY2YThiYy9jMnBhLnNpZ25hdHVyZWppbnN0YW5jZUlEeCx4bXA6aWlkOjJiMTE4ZTI5LWI1ZGMtNGViNC1iM2FkLTM1NDgyOTE2ZmY5M3JjcmVhdGVkX2Fzc2VydGlvbnODomN1cmx4LXNlbGYjanVtYmY9YzJwYS5hc3NlcnRpb25zL2MycGEuaW5ncmVkaWVudC52M2RoYXNoWCAQGRw40zlgnpg71waESeGnF55nH4U8OhYBitRR+xn6cKJjdXJseCpzZWxmI2p1bWJmPWMycGEuYXNzZXJ0aW9ucy9jMnBhLmFjdGlvbnMudjJkaGFzaFggD1LMHHm3sbyelPe1H3g6qaSkXb4mCMpXvz06h5UFzZ2iY3VybHgpc2VsZiNqdW1iZj1jMnBhLmFzc2VydGlvbnMvYzJwYS5oYXNoLmRhdGFkaGFzaFggM1tJUqeufA8pw2G20ge/KuQ8h8+XR/mQllPWbs/kGU90Y2xhaW1fZ2VuZXJhdG9yX2luZm+jZG5hbWVvQW50aHJvcGljIEZpbGVzZ3ZlcnNpb25lMS4wLjBrc3BlY1ZlcnNpb25lMi40LjAAABA4anVtYgAAAChqdW1kYzJjcwARABCAAACqADibcQNjMnBhLnNpZ25hdHVyZQAAABAIY2JvctKEWQISogEmGCFZAgowggIGMIIBjaADAgECAhRA5aAK7sI50L64g/oGQgU9Z1UTADAKBggqhkjOPQQDAzBJMRcwFQYDVQQKEw5BbnRocm9waWMsIFBCQzEuMCwGA1UEAxMlQW50aHJvcGljIENvbnRlbnQgQ3JlZGVudGlhbHMgUm9vdCBDQTAeFw0yNjA4MDcxODQzNTZaFw0yODA4MDYxOTQzNTZaMEQxFzAVBgNVBAoTDkFudGhyb3BpYywgUEJDMSkwJwYDVQQDEyBBbnRocm9waWMgQ2xhdWRlIENvbnRlbnQgU2lnbmluZzBZMBMGByqGSM49AgEGCCqGSM49AwEHA0IABJh6CmvLUBgFFNU0vUKlOVtE6djd17L5SuwX0LemFisBM3dkd/3cyjxFA3Qo5S46fX0/ihY0VZ7mfb9KF703t5OjWDBWMA4GA1UdDwEB/wQEAwIHgDAVBgNVHSUEDjAMBgorBgEEAYPoXgIBMAwGA1UdEwEB/wQCMAAwHwYDVR0jBBgwFoAUzlHiBIFOZFsj+OPEz5o+nMHXXMIwCgYIKoZIzj0EAwMDZwAwZAIwMXMdFJ4BetLLVY7ORuE9noqbbAZOZn/aArXyTwFAZfKrPzxF2vPoJNf1+UCdg1XGAjBwX1zd9WGqYkqmL5SFqw1QySjr1zJfpJM9+1rdDwSPLMOPOjKuiXjoU/pUUeG9RwmhY3BhZFkNngAAAAAAAAAAAAAAAAAAAAAAAAAAAAAAAAAAAAAAAAAAAAAAAAAAAAAAAAAAAAAAAAAAAAAAAAAAAAAAAAAAAAAAAAAAAAAAAAAAAAAAAAAAAAAAAAAAAAAAAAAAAAAAAAAAAAAAAAAAAAAAAAAAAAAAAAAAAAAAAAAAAAAAAAAAAAAAAAAAAAAAAAAAAAAAAAAAAAAAAAAAAAAAAAAAAAAAAAAAAAAAAAAAAAAAAAAAAAAAAAAAAAAAAAAAAAAAAAAAAAAAAAAAAAAAAAAAAAAAAAAAAAAAAAAAAAAAAAAAAAAAAAAAAAAAAAAAAAAAAAAAAAAAAAAAAAAAAAAAAAAAAAAAAAAAAAAAAAAAAAAAAAAAAAAAAAAAAAAAAAAAAAAAAAAAAAAAAAAAAAAAAAAAAAAAAAAAAAAAAAAAAAAAAAAAAAAAAAAAAAAAAAAAAAAAAAAAAAAAAAAAAAAAAAAAAAAAAAAAAAAAAAAAAAAAAAAAAAAAAAAAAAAAAAAAAAAAAAAAAAAAAAAAAAAAAAAAAAAAAAAAAAAAAAAAAAAAAAAAAAAAAAAAAAAAAAAAAAAAAAAAAAAAAAAAAAAAAAAAAAAAAAAAAAAAAAAAAAAAAAAAAAAAAAAAAAAAAAAAAAAAAAAAAAAAAAAAAAAAAAAAAAAAAAAAAAAAAAAAAAAAAAAAAAAAAAAAAAAAAAAAAAAAAAAAAAAAAAAAAAAAAAAAAAAAAAAAAAAAAAAAAAAAAAAAAAAAAAAAAAAAAAAAAAAAAAAAAAAAAAAAAAAAAAAAAAAAAAAAAAAAAAAAAAAAAAAAAAAAAAAAAAAAAAAAAAAAAAAAAAAAAAAAAAAAAAAAAAAAAAAAAAAAAAAAAAAAAAAAAAAAAAAAAAAAAAAAAAAAAAAAAAAAAAAAAAAAAAAAAAAAAAAAAAAAAAAAAAAAAAAAAAAAAAAAAAAAAAAAAAAAAAAAAAAAAAAAAAAAAAAAAAAAAAAAAAAAAAAAAAAAAAAAAAAAAAAAAAAAAAAAAAAAAAAAAAAAAAAAAAAAAAAAAAAAAAAAAAAAAAAAAAAAAAAAAAAAAAAAAAAAAAAAAAAAAAAAAAAAAAAAAAAAAAAAAAAAAAAAAAAAAAAAAAAAAAAAAAAAAAAAAAAAAAAAAAAAAAAAAAAAAAAAAAAAAAAAAAAAAAAAAAAAAAAAAAAAAAAAAAAAAAAAAAAAAAAAAAAAAAAAAAAAAAAAAAAAAAAAAAAAAAAAAAAAAAAAAAAAAAAAAAAAAAAAAAAAAAAAAAAAAAAAAAAAAAAAAAAAAAAAAAAAAAAAAAAAAAAAAAAAAAAAAAAAAAAAAAAAAAAAAAAAAAAAAAAAAAAAAAAAAAAAAAAAAAAAAAAAAAAAAAAAAAAAAAAAAAAAAAAAAAAAAAAAAAAAAAAAAAAAAAAAAAAAAAAAAAAAAAAAAAAAAAAAAAAAAAAAAAAAAAAAAAAAAAAAAAAAAAAAAAAAAAAAAAAAAAAAAAAAAAAAAAAAAAAAAAAAAAAAAAAAAAAAAAAAAAAAAAAAAAAAAAAAAAAAAAAAAAAAAAAAAAAAAAAAAAAAAAAAAAAAAAAAAAAAAAAAAAAAAAAAAAAAAAAAAAAAAAAAAAAAAAAAAAAAAAAAAAAAAAAAAAAAAAAAAAAAAAAAAAAAAAAAAAAAAAAAAAAAAAAAAAAAAAAAAAAAAAAAAAAAAAAAAAAAAAAAAAAAAAAAAAAAAAAAAAAAAAAAAAAAAAAAAAAAAAAAAAAAAAAAAAAAAAAAAAAAAAAAAAAAAAAAAAAAAAAAAAAAAAAAAAAAAAAAAAAAAAAAAAAAAAAAAAAAAAAAAAAAAAAAAAAAAAAAAAAAAAAAAAAAAAAAAAAAAAAAAAAAAAAAAAAAAAAAAAAAAAAAAAAAAAAAAAAAAAAAAAAAAAAAAAAAAAAAAAAAAAAAAAAAAAAAAAAAAAAAAAAAAAAAAAAAAAAAAAAAAAAAAAAAAAAAAAAAAAAAAAAAAAAAAAAAAAAAAAAAAAAAAAAAAAAAAAAAAAAAAAAAAAAAAAAAAAAAAAAAAAAAAAAAAAAAAAAAAAAAAAAAAAAAAAAAAAAAAAAAAAAAAAAAAAAAAAAAAAAAAAAAAAAAAAAAAAAAAAAAAAAAAAAAAAAAAAAAAAAAAAAAAAAAAAAAAAAAAAAAAAAAAAAAAAAAAAAAAAAAAAAAAAAAAAAAAAAAAAAAAAAAAAAAAAAAAAAAAAAAAAAAAAAAAAAAAAAAAAAAAAAAAAAAAAAAAAAAAAAAAAAAAAAAAAAAAAAAAAAAAAAAAAAAAAAAAAAAAAAAAAAAAAAAAAAAAAAAAAAAAAAAAAAAAAAAAAAAAAAAAAAAAAAAAAAAAAAAAAAAAAAAAAAAAAAAAAAAAAAAAAAAAAAAAAAAAAAAAAAAAAAAAAAAAAAAAAAAAAAAAAAAAAAAAAAAAAAAAAAAAAAAAAAAAAAAAAAAAAAAAAAAAAAAAAAAAAAAAAAAAAAAAAAAAAAAAAAAAAAAAAAAAAAAAAAAAAAAAAAAAAAAAAAAAAAAAAAAAAAAAAAAAAAAAAAAAAAAAAAAAAAAAAAAAAAAAAAAAAAAAAAAAAAAAAAAAAAAAAAAAAAAAAAAAAAAAAAAAAAAAAAAAAAAAAAAAAAAAAAAAAAAAAAAAAAAAAAAAAAAAAAAAAAAAAAAAAAAAAAAAAAAAAAAAAAAAAAAAAAAAAAAAAAAAAAAAAAAAAAAAAAAAAAAAAAAAAAAAAAAAAAAAAAAAAAAAAAAAAAAAAAAAAAAAAAAAAAAAAAAAAAAAAAAAAAAAAAAAAAAAAAAAAAAAAAAAAAAAAAAAAAAAAAAAAAAAAAAAAAAAAAAAAAAAAAAAAAAAAAAAAAAAAAAAAAAAAAAAAAAAAAAAAAAAAAAAAAAAAAAAAAAAAAAAAAAAAAAAAAAAAAAAAAAAAAAAAAAAAAAAAAAAAAAAAAAAAAAAAAAAAAAAAAAAAAAAAAAAAAAAAAAAAAAAAAAAAAAAAAAAAAAAAAAAAAAAAAAAAAAAAAAAAAAAAAAAAAAAAAAAAAAAAAAAAAAAAAAAAAAAAAAAAAAAAAAAAAAAAAAAAAAAAAAAAAAAAAAAAAAAAAAAAAAAAAAAAAAAAAAAAAAAAAAAAAAAAAAAAAAAAAAAAAAAAAAAAAAAAAAAAAAAAAAAAAAAAAAAAAAAAAAAAAAAAAAAAAAAAAAAAAAAAAAAAAAAAAAAAAAAAAAAAAAAAAAAAAAAAAAAAAAAAAAAAAAAAAAAAAAAAAAAAAAAAAAAAAAAAAAAAAAAAAAAAAAAAAAAAAAAAAAAAAAAAAAAAAAAAAAAAAAAAAAAAAAAAAAAAAAAAAAAAAAAAAAAAAAAAAAAAAAAAAAAAAAAAAAAAAAAAAAAAAAAAAAAAAAAAAAAAAAAAAAAAAAAAAAAAAAAAAAAAAAAAAAAAAAAAAAAAAAAAAAAAAAAAAAAAAAAAAAAAAAAAAAAAAAAAAAAAAAAAAAAAAAAAAAAAAAAAAAAAAAAAAAAAAAAAAAAAAAAAAAAAAAAAAAAAAAAAAAAAAAAAAAAAAAAAAAAAAAAAAAAAAAAAAAAAAAAAAAAAAAAAAAAAAAAAAAAAAAAAAAAAAAAAAAAAAAAAAAAAAAAAAAAAAAAAAAAAAAAAAAAAAAAAAAAAAAAAAAAAAAAAAAAAAAAAAAAAAAAAAAAAAAAAAAAAAAAAAAAAAAAAAAAAAAAAAAAAAAAAAAAAAAAAAAAAAAAAAAAAAAAAAAAAAAAAAAAAAAAAAAAAAAAAAAAAAAAAAAAAAAAAAAAAAAAAAAAAAAAAAAAAAAAAAAAAAAAAAAAAAAAAAAAAAAAAAAAAAAAAAAAAAAAAAAAAAAAAAAAAAAAAAAAAAAAAAAAAAAAAAAAAAAAAAAAAAAAAAAAAAAAAAAAAAAAAAAAAAAAAAAAAAAAAAAAAAAAAAAAAAAAAAAAAAAAAAAAAAAAAAAAAAAAAAAAAAAAAAAAAAAAAAAAAAAAAAAAAAAAAAAAAAAAAAAAAAAAAAAAAAAAAAAAAAAAAAAAAAAAAAAAAAAAAAAAAAAAAAAAAAAAAAAAAAAAAAAAAAAAAAAAAAAAAAAAAAAAAAAAAAAAAAAAAAAAAAAAAAAAAAAAAAAAAAAAAAAAAAAAAAAAAAAAAAAAAAAAAAAAAAAAAAAAAAAAAAAAAAAAAAAAAAAAAAAAAAAAAAAAAAAAAAAAAAAAAAAAAAAAAAAAAAAAAAAAAAAAAAAAAAAAAAAAAAAAAAAAAAAAAAAAAAAAAAAAAAAAAAAAAAAAAAAAAAAAAAAAAAAAAAAAAAAAAAAAAAAAAAAAAAAAAAAAAAAAAAAAAAAAAAAAAAAAAAAAAAAAAAAAAAAAAAAAAAAAAAAAAAAAAAAAAAAAAAAAAAAAAAAAAAAAAAAAAAAAAAAAAAAAAAAAAAAAAAAAAAAAAAAAAAAAAAAAAAAAAAAAAAAAAAAAAAAAAAAAAAAAAAAAAAAAAAAAAAAAAAAAAAAAAAAAAAAAAAAAAAAAAAAAAAAAAAAAAAAAAAAAAAAAAAAAAAAAAAAAAAAAAAAAAAAAAAAAAAAAAAAAAAAAAAAAAAAAAAAAAAAAAAAAAAAAAAAAAAAAAAAAAAAAAAAAPZYQNGv0vdmmLAVSED63AIlGDrzFMzHEiMP/jrdAoVSipKpi1uTe2lDUuJORUXF2Ewl+moIgWxs7XOB2qGATykCkcw=</c2pa:manifest></metadata>
  <path fill="#2B2925" fill-rule="evenodd" d="M 0.00 512.00 L 0.00 0.00 L 512.00 0.00 L 1024.00 0.00 L 1024.00 512.00 L 1024.00 1024.00 L 512.00 1024.00 L 0.00 1024.00 L 0.00 512.00 Z M 577.50 846.51 C 607.89 842.09 634.39 829.83 658.50 809.01 C 661.25 806.64 668.23 800.20 674.00 794.70 C 695.71 774.03 705.48 767.80 716.50 767.61 C 735.11 767.27 743.92 788.64 730.00 800.35 C 724.41 805.05 716.69 805.82 709.80 802.36 C 705.98 800.44 703.25 800.67 701.98 803.04 C 700.36 806.06 701.54 808.39 707.30 813.61 C 720.65 825.67 738.54 827.80 756.03 819.42 C 773.03 811.27 783.00 794.80 783.00 774.84 C 783.00 757.99 777.87 745.59 766.11 733.99 C 752.92 720.98 740.47 716.41 720.50 717.26 C 695.11 718.34 675.27 728.33 644.85 755.37 C 618.99 778.35 600.06 790.20 581.56 794.96 C 559.80 800.56 533.72 794.63 520.06 780.97 C 514.77 775.67 506.87 763.03 507.84 761.42 C 508.72 759.98 525.73 744.79 534.46 737.66 L 541.42 731.97 L 543.49 738.35 C 549.49 756.89 565.21 764.01 585.78 757.51 C 595.60 754.41 610.27 744.84 625.18 731.83 C 631.05 726.70 641.17 717.85 647.68 712.18 C 667.15 695.17 689.28 681.39 707.17 675.14 C 726.17 668.50 746.78 666.51 765.00 669.55 C 770.77 670.52 777.30 671.35 779.50 671.40 C 783.32 671.50 783.51 671.35 783.82 668.20 C 784.10 665.29 783.27 664.01 776.77 657.20 L 769.41 649.50 L 771.20 642.52 C 776.16 623.14 777.30 600.91 774.11 585.48 C 771.36 572.15 766.99 562.76 755.39 545.26 C 744.32 528.56 741.66 522.92 740.01 512.56 C 738.64 503.97 739.45 497.23 743.82 481.00 C 747.25 468.28 747.46 466.63 747.44 452.50 C 747.43 438.73 747.20 436.81 744.60 429.00 C 741.27 418.99 739.10 414.47 734.02 406.96 L 730.28 401.43 L 731.79 392.96 C 732.80 387.33 733.32 377.80 733.35 364.50 C 733.39 347.49 733.06 342.97 731.18 334.25 C 723.71 299.71 706.85 270.24 680.86 246.28 C 658.94 226.07 633.12 213.08 600.46 205.83 C 591.75 203.90 587.30 203.60 565.00 203.47 L 539.50 203.33 L 533.72 197.60 C 529.31 193.22 526.82 189.50 523.22 181.89 C 518.68 172.30 518.39 171.93 515.50 172.21 C 512.79 172.47 512.27 173.13 510.15 179.00 C 508.38 183.88 507.63 188.60 507.15 197.92 L 506.50 210.35 L 499.03 212.62 C 494.93 213.88 491.52 214.81 491.46 214.70 C 485.71 204.23 479.49 199.13 466.78 194.49 C 447.62 187.49 441.41 183.11 434.01 171.39 C 427.59 161.23 423.99 162.81 421.89 176.71 C 419.12 194.99 421.11 214.70 426.93 226.48 C 428.55 229.76 429.74 232.59 429.57 232.77 C 429.39 232.94 427.67 233.34 425.73 233.66 L 422.22 234.23 L 417.95 226.02 C 412.09 214.76 405.58 207.88 396.66 203.52 C 385.06 197.86 372.06 195.34 369.20 198.20 C 367.03 200.37 367.93 202.28 373.79 207.93 C 380.48 214.35 382.38 217.93 384.50 228.02 C 386.41 237.10 388.82 242.58 392.74 246.74 L 395.79 249.98 L 391.85 254.24 C 382.46 264.41 378.49 275.52 379.23 289.62 C 379.65 297.66 380.20 299.89 383.42 306.67 C 385.46 310.97 388.17 315.84 389.43 317.50 L 391.73 320.51 L 389.44 330.02 C 388.18 335.25 385.13 344.47 382.67 350.51 C 373.26 373.54 372.81 380.09 379.80 391.68 C 382.11 395.50 384.00 399.76 384.00 401.16 C 384.00 402.56 381.55 408.69 378.56 414.78 C 375.57 420.87 372.17 429.15 371.00 433.18 C 369.83 437.21 365.97 449.19 362.43 459.80 C 358.90 470.42 356.00 480.56 356.00 482.34 C 356.00 487.78 359.93 494.19 365.00 496.99 C 368.54 498.95 370.94 499.49 376.25 499.49 C 379.96 499.50 383.00 499.57 383.00 499.65 C 383.00 499.73 381.90 502.18 380.55 505.09 C 375.31 516.40 376.30 526.81 383.23 533.21 L 387.25 536.92 L 385.62 540.98 C 382.39 549.07 383.79 555.21 390.21 561.08 C 394.35 564.87 394.36 564.87 393.13 568.95 C 392.37 571.51 389.45 575.74 385.33 580.27 C 368.89 598.32 358.59 620.18 353.86 647.00 C 352.40 655.27 351.60 666.08 350.98 685.50 C 350.08 714.24 349.26 719.60 344.32 729.36 C 340.70 736.50 332.86 744.38 326.70 747.07 C 319.76 750.10 310.23 750.23 303.99 747.38 C 286.21 739.27 283.15 715.13 298.51 704.10 C 303.35 700.63 311.52 698.50 316.77 699.35 C 321.22 700.07 324.00 698.61 324.00 695.54 C 324.00 692.26 320.42 689.71 312.07 687.02 C 306.20 685.14 303.42 684.83 295.12 685.16 C 285.63 685.55 284.75 685.78 275.57 690.33 C 258.48 698.82 248.63 711.20 242.81 731.50 C 239.55 742.90 239.53 763.05 242.77 774.29 C 252.61 808.43 281.12 832.28 319.60 838.57 C 331.51 840.51 362.62 840.76 377.50 839.04 C 410.32 835.23 438.14 824.73 463.38 806.64 C 464.19 806.06 466.71 807.86 471.04 812.14 C 498.66 839.39 538.35 852.20 577.50 846.51 Z"/>
</svg>
